# Simple Unit Cube
mtllib cube.mtl

v -0.5 -0.5 -0.5
v 0.5 -0.5 -0.5
v -0.5 0.5 -0.5
v 0.5 0.5 -0.5
v -0.5 -0.5 0.5
v 0.5 -0.5 0.5
v -0.5 0.5 0.5
v 0.5 0.5 0.5

vn -1.0 0.0 0.0
vn 1.0 0.0 0.0
vn 0.0 1.0 0.0
vn 0.0 -1.0 0.0
vn 0.0 0.0 -1.0
vn 0.0 0.0 1.0

vt 0.0 0.0
vt 1.0 0.0
vt 0.0 1.0
vt 1.0 1.0

usemtl Body
g Left
f 5/1/1 7/3/1 3/4/1
f 1/2/1 5/1/1 3/4/1

g Right
f 6/2/2 4/3/2 8/4/2
f 2/1/2 4/3/2 6/2/2

g Top
f 3/1/3 7/3/3 8/4/3
f 3/1/3 8/4/3 4/2/3

g Bottom
f 1/3/4 6/2/4 5/1/4
f 2/4/4 6/2/4 1/3/4

g Near
f 1/1/5 3/3/5 2/2/5
f 2/2/5 3/3/5 4/4/5

g Far
f 5/2/6 6/1/6 7/4/6
f 6/1/6 8/3/6 7/4/6
